<?xml version="1.0" encoding="utf-8"?>
<!-- Generator: Adobe Illustrator 27.6.1, SVG Export Plug-In . SVG Version: 6.00 Build 0)  -->
<svg version="1.1" id="Слой_1" xmlns="http://www.w3.org/2000/svg" xmlns:xlink="http://www.w3.org/1999/xlink" x="0px" y="0px"
	 viewBox="0 0 1080 1080" style="enable-background:new 0 0 1080 1080;" xml:space="preserve">
<style type="text/css">
	.st0{fill:url(#SVGID_1_);}
	.st1{fill:#FFFFFF;}
	.st2{fill:url(#SVGID_00000010292563255739677100000011142545180837004951_);}
	.st3{fill:url(#SVGID_00000139989041512182668040000011495970804735261614_);}
	.st4{fill:url(#SVGID_00000037680896059886555730000003221196557534600636_);}
	.st5{opacity:0.23;fill:#030608;}
	.st6{fill:url(#SVGID_00000023242082278733437520000001031729598172475525_);}
	.st7{fill:url(#SVGID_00000069356064092015930350000001574242270735709866_);}
</style>
<path class="st1" d="M1012.77,1080H67.23C30.1,1080,0,1049.9,0,1012.77V67.23C0,30.1,30.1,0,67.23,0h945.53
	C1049.9,0,1080,30.1,1080,67.23v945.53C1080,1049.9,1049.9,1080,1012.77,1080z"/>
<g>
	<linearGradient id="SVGID_1_" gradientUnits="userSpaceOnUse" x1="878.8588" y1="327.5722" x2="878.8588" y2="769.0966">
		<stop  offset="0.3555" style="stop-color:#E0A64C"/>
		<stop  offset="1" style="stop-color:#C95C48"/>
	</linearGradient>
	<path class="st0" d="M766.58,774.65V190.49c109.47,52.3,201.16,175.53,224.56,321.53C967.16,635.25,871.81,732.96,766.58,774.65z"
		/>
	
		<linearGradient id="SVGID_00000158006021044128600260000007854831303627202454_" gradientUnits="userSpaceOnUse" x1="83.0331" y1="298.9846" x2="610.364" y2="298.9846">
		<stop  offset="0.3555" style="stop-color:#4C5689"/>
		<stop  offset="1" style="stop-color:#2A2E39"/>
	</linearGradient>
	<path style="fill:url(#SVGID_00000158006021044128600260000007854831303627202454_);" d="M610.36,35.12v454.25H464.05V311.21h-64
		c-24,0-47.4,2.67-69.89,7.75C208.22,346.39,112.87,444.09,88.9,567.32c-3.87-24.03-5.86-48.68-5.86-73.81
		c0-255.64,207.22-462.86,462.86-462.86C567.78,30.65,589.29,32.17,610.36,35.12z"/>
	
		<linearGradient id="SVGID_00000083059413346307650720000004988501872802139053_" gradientUnits="userSpaceOnUse" x1="211.3225" y1="846.4407" x2="211.3225" y2="277.8644">
		<stop  offset="0.3555" style="stop-color:#4C5689"/>
		<stop  offset="1" style="stop-color:#2A2E39"/>
	</linearGradient>
	<path style="fill:url(#SVGID_00000083059413346307650720000004988501872802139053_);" d="M333.28,318.19l-6.23,584.12
		c-125.47-67.9-215.84-192.1-237.68-338.34C114.66,441.01,211.05,344.32,333.28,318.19z"/>
	<path class="st5" d="M333.22,318.19l-0.32,26.76c-0.97,0.16-1.85,0.32-2.82,0.56C212.89,371.95,120.3,463.09,92.01,579.55
		c-0.97-5-1.77-9.99-2.58-15.07c11.44-56.74,38.12-107.83,75.51-149.17c2.5-2.74,5.08-5.48,7.74-8.22c2.66-2.74,5.32-5.4,8.06-7.98
		c2.66-2.58,5.48-5.16,8.3-7.66c2.82-2.5,5.64-5,8.54-7.41c2.9-2.42,5.88-4.76,8.87-7.09c2.98-2.26,6.04-4.51,9.11-6.77
		c3.06-2.18,6.21-4.35,9.35-6.45c18.94-12.49,39.25-23.13,60.77-31.43c3.55-1.37,7.17-2.66,10.8-3.95
		c7.33-2.5,14.75-4.76,22.24-6.77c3.79-0.97,7.58-1.85,11.36-2.74C331.12,318.59,332.17,318.35,333.22,318.19z"/>
	<path class="st5" d="M766.58,757.69l0.3-26.32c0.89-0.16,1.71-0.32,2.6-0.55c107.94-26,193.23-115.67,219.29-230.23
		c0.89,4.92,1.63,9.83,2.38,14.83c-10.54,55.81-35.11,106.08-69.56,146.75c-2.3,2.7-4.68,5.39-7.13,8.09
		c-2.45,2.7-4.9,5.31-7.42,7.85c-2.45,2.54-5.05,5.07-7.65,7.53c-2.6,2.46-5.2,4.92-7.87,7.29c-2.67,2.38-5.42,4.68-8.17,6.98
		c-2.75,2.22-5.57,4.44-8.39,6.66c-2.82,2.14-5.72,4.28-8.61,6.34c-17.44,12.29-36.15,22.75-55.97,30.92
		c-3.27,1.35-6.61,2.62-9.95,3.88c-6.76,2.46-13.58,4.68-20.49,6.66c-3.49,0.95-6.98,1.82-10.47,2.7
		C768.51,757.3,767.55,757.54,766.58,757.69z"/>
	
		<linearGradient id="SVGID_00000025414805542511396160000000540286232011175832_" gradientUnits="userSpaceOnUse" x1="960.6451" y1="466.5998" x2="464.3744" y2="962.8706">
		<stop  offset="0.3555" style="stop-color:#E0A64C"/>
		<stop  offset="1" style="stop-color:#C95C48"/>
	</linearGradient>
	<path style="fill:url(#SVGID_00000025414805542511396160000000540286232011175832_);" d="M469.67,1044.22V610.25h146.31v157.89h64
		c24,0,47.4-2.67,69.89-7.75c121.95-27.43,217.3-125.14,241.27-248.37c3.87,24.03,5.86,48.68,5.86,73.81
		c0,255.64-207.22,462.86-462.86,462.86C512.25,1048.7,490.74,1047.18,469.67,1044.22z"/>
</g>
</svg>
