<?xml version="1.0" encoding="utf-8"?>
<!-- Generator: Adobe Illustrator 27.6.1, SVG Export Plug-In . SVG Version: 6.00 Build 0)  -->
<svg version="1.1" id="Слой_1" xmlns="http://www.w3.org/2000/svg" xmlns:xlink="http://www.w3.org/1999/xlink" x="0px" y="0px"
	 viewBox="0 0 1958.93 501.16" style="enable-background:new 0 0 1958.93 501.16;" xml:space="preserve">
<style type="text/css">
	.st0{fill:url(#SVGID_1_);}
	.st1{fill:url(#SVGID_00000163052864308173642670000008917942714801365682_);}
	.st2{fill:url(#SVGID_00000150820010870684855510000016615375633634873499_);}
	.st3{fill:url(#SVGID_00000016044700393216975690000003596649160561737366_);}
	.st4{fill:url(#SVGID_00000069399128942577951860000015148458287117077946_);}
	.st5{fill:url(#SVGID_00000112594087182254272320000006549534998596760510_);}
	.st6{fill:url(#SVGID_00000021120604702115023670000003416807143437783476_);}
	.st7{fill:url(#SVGID_00000037694138020316967650000015419182888497035433_);}
	.st8{fill:url(#SVGID_00000056428849321639811030000017219472446010845588_);}
	.st9{fill:url(#SVGID_00000103247999429957650490000009408571568785177515_);}
	.st10{opacity:0.23;}
	.st11{fill:url(#SVGID_00000077291114874072903430000009233958120195710617_);}
	.st12{fill:#F39300;}
	.st13{fill:url(#SVGID_00000022529617223956355170000013011711509295675313_);}
	.st14{fill:url(#SVGID_00000126307520836244626470000012464360682976006282_);}
	.st15{fill:url(#SVGID_00000121237234245738995010000011168953268476575665_);}
	.st16{fill:url(#SVGID_00000103953413052394253390000014276878073357236664_);}
	.st17{fill:url(#SVGID_00000046309654213066176730000006096233048348247979_);}
	.st18{fill:url(#SVGID_00000015331382775880520680000008704296487834190757_);}
	.st19{fill:url(#SVGID_00000163074963533240813810000001408150868946211721_);}
	.st20{fill:url(#SVGID_00000005256975095722682790000011786708867103675795_);}
	.st21{fill:url(#SVGID_00000178187474232041182610000017000753253736666519_);}
	.st22{fill:url(#SVGID_00000126309234176718723440000011766300950887653022_);}
	.st23{fill:url(#SVGID_00000038408807305000072860000008312124088132026767_);}
</style>
<g>
	<linearGradient id="SVGID_1_" gradientUnits="userSpaceOnUse" x1="391.7645" y1="146.1685" x2="391.7645" y2="363.5196">
		<stop  offset="0.3555" style="stop-color:#F1A922"/>
		<stop  offset="1" style="stop-color:#E24C00"/>
	</linearGradient>
	<path class="st0" d="M336.49,366.25V78.69c53.89,25.75,99.02,86.41,110.54,158.28C435.23,297.63,388.29,345.73,336.49,366.25z"/>
	<g>
		
			<linearGradient id="SVGID_00000157309533008626589030000015572005836900461192_" gradientUnits="userSpaceOnUse" x1="603.4817" y1="4.573" x2="603.4817" y2="373.4414">
			<stop  offset="0.3555" style="stop-color:#2232A0"/>
			<stop  offset="1" style="stop-color:#12183A"/>
		</linearGradient>
		<path style="fill:url(#SVGID_00000157309533008626589030000015572005836900461192_);" d="M689.87,347.34h-61.73V223.39h-49.31
			v123.95h-61.74V76.27h61.74v98.47h49.31V76.27h61.73V347.34z"/>
		
			<linearGradient id="SVGID_00000052085248173915860480000003561323765511767468_" gradientUnits="userSpaceOnUse" x1="806.0827" y1="4.573" x2="806.0827" y2="373.4414">
			<stop  offset="0.3555" style="stop-color:#2232A0"/>
			<stop  offset="1" style="stop-color:#12183A"/>
		</linearGradient>
		<path style="fill:url(#SVGID_00000052085248173915860480000003561323765511767468_);" d="M875.07,347.34H737.1V76.27h134.24v50.97
			H798v47.49h77.07v48.65H798v72.98h77.07V347.34z"/>
		
			<linearGradient id="SVGID_00000000186794705920824250000015200014390682137488_" gradientUnits="userSpaceOnUse" x1="1001.6425" y1="4.573" x2="1001.6425" y2="373.4414">
			<stop  offset="0.3555" style="stop-color:#2232A0"/>
			<stop  offset="1" style="stop-color:#12183A"/>
		</linearGradient>
		<path style="fill:url(#SVGID_00000000186794705920824250000015200014390682137488_);" d="M1089.69,268.57
			c0,29.86-6.01,50.46-18.02,61.78c-12.01,11.33-34.05,16.99-66.08,16.99H913.6V76.27h89.08c30.93,0,52.06,3.86,63.39,11.59
			c13.26,9.53,19.89,28.06,19.89,55.6c0,22.91-9.94,40.68-29.83,53.29c13.53,8.75,22.79,19.18,27.76,31.28
			C1087.75,237.81,1089.69,251.32,1089.69,268.57z M1022.98,148.86c0-15.45-7.74-23.17-23.2-23.17H974.5v51.74h14.09
			C1011.52,177.44,1022.98,167.92,1022.98,148.86z M1026.71,263.93c0-27.54-10.5-41.32-31.49-41.32H974.5v73.75h16.16
			c14.09,0,23.62-2.12,28.59-6.37C1024.22,285.75,1026.71,277.06,1026.71,263.93z"/>
		
			<linearGradient id="SVGID_00000121264891221451267520000010965470773735447707_" gradientUnits="userSpaceOnUse" x1="1215.8474" y1="4.573" x2="1215.8474" y2="373.4414">
			<stop  offset="0.3555" style="stop-color:#2232A0"/>
			<stop  offset="1" style="stop-color:#12183A"/>
		</linearGradient>
		<path style="fill:url(#SVGID_00000121264891221451267520000010965470773735447707_);" d="M1303.89,259.69
			c0,32.44-5.94,55.35-17.82,68.73c-12.99,14.93-36.46,22.39-70.43,22.39c-33.7,0-57.18-7.59-70.44-22.78
			c-11.6-13.38-17.4-36.16-17.4-68.35v-95.76c0-32.43,5.8-55.22,17.4-68.35c12.98-14.93,36.46-22.4,70.44-22.4
			c39.22,0,64.63,9.91,76.24,29.73c8.01,13.65,12.02,40.42,12.02,80.32h-63.81v-33.59c0-9.27-1.39-15.7-4.14-19.31
			c-3.59-4.12-10.36-6.18-20.3-6.18c-9.39,0-15.89,1.74-19.47,5.21c-3.59,3.48-5.39,9.59-5.39,18.34v128.2
			c0,8.75,1.79,14.93,5.39,18.53c3.59,3.61,10.08,5.41,19.47,5.41c10.49,0,17.4-2.19,20.72-6.56c2.49-3.6,3.73-10.17,3.73-19.69
			v-46.34h63.81V259.69z"/>
		
			<linearGradient id="SVGID_00000069389973735396231380000011603478883670831544_" gradientUnits="userSpaceOnUse" x1="1430.4602" y1="4.573" x2="1430.4602" y2="373.4414">
			<stop  offset="0.3555" style="stop-color:#2232A0"/>
			<stop  offset="1" style="stop-color:#12183A"/>
		</linearGradient>
		<path style="fill:url(#SVGID_00000069389973735396231380000011603478883670831544_);" d="M1517.26,83.99
			c0,41.19-16.44,77.49-49.3,108.89c20.44,19.57,34.25,43.64,41.43,72.21c5.24,19.83,7.87,47.24,7.87,82.25h-61.74
			c0-28.83-1.1-50.45-3.31-64.87c-3.87-23.94-11.74-44.02-23.62-60.24c-9.39,5.66-17.4,9.91-24.03,12.74v112.37h-60.91V76.27h60.91
			v115.07c33.98-24.45,50.96-62.81,50.96-115.07h61.74c0,0.77,0,2.06,0,3.86C1517.26,81.94,1517.26,83.22,1517.26,83.99z"/>
		
			<linearGradient id="SVGID_00000135654227499501108910000010146978288314010768_" gradientUnits="userSpaceOnUse" x1="1646.9424" y1="4.573" x2="1646.9424" y2="373.4414">
			<stop  offset="0.3555" style="stop-color:#2232A0"/>
			<stop  offset="1" style="stop-color:#12183A"/>
		</linearGradient>
		<path style="fill:url(#SVGID_00000135654227499501108910000010146978288314010768_);" d="M1735.19,347.34h-61.74v-91.13
			c-14.14,33.21-32.99,63.59-56.56,91.13h-58.21V76.27h61.74v198.09c22.72-27.28,37.88-58.82,45.46-94.6
			c5.05-24.19,7.57-58.69,7.57-103.49h61.74V347.34z"/>
		
			<linearGradient id="SVGID_00000108299002654145266900000013104630385911974040_" gradientUnits="userSpaceOnUse" x1="1870.6765" y1="4.573" x2="1870.6765" y2="373.4414">
			<stop  offset="0.3555" style="stop-color:#2232A0"/>
			<stop  offset="1" style="stop-color:#12183A"/>
		</linearGradient>
		<path style="fill:url(#SVGID_00000108299002654145266900000013104630385911974040_);" d="M1958.93,347.34h-61.74v-91.13
			c-14.14,33.21-32.99,63.59-56.56,91.13h-58.21V76.27h61.74v198.09c22.72-27.28,37.88-58.82,45.46-94.6
			c5.05-24.19,7.57-58.69,7.57-103.49h61.74V347.34z M1924.95,24.91c-5.8,27.29-23.89,40.93-54.28,40.93
			c-30.39,0-48.48-13.64-54.28-40.93l26.93-6.57c1.66,12.88,7.73,20.34,18.23,22.4c2.76,0.52,5.8,0.77,9.11,0.77
			c10.77,0,17.88-2.64,21.34-7.92c3.45-5.27,5.45-10.36,6.01-15.25L1924.95,24.91z"/>
	</g>
	
		<linearGradient id="SVGID_00000010282544770495946140000004572215657574104965_" gradientUnits="userSpaceOnUse" x1="0" y1="132.0956" x2="259.5914" y2="132.0956">
		<stop  offset="0.3555" style="stop-color:#2232A0"/>
		<stop  offset="1" style="stop-color:#12183A"/>
	</linearGradient>
	<path style="fill:url(#SVGID_00000010282544770495946140000004572215657574104965_);" d="M259.59,2.2v223.61h-72.03v-87.7h-31.5
		c-11.82,0-23.33,1.31-34.4,3.81c-60.03,13.5-106.97,61.6-118.77,122.26C0.98,252.36,0,240.23,0,227.86C0,102.01,102.01,0,227.86,0
		C238.63,0,249.22,0.75,259.59,2.2z"/>
	
		<linearGradient id="SVGID_00000138569851300984747220000000432687636279643279_" gradientUnits="userSpaceOnUse" x1="63.1536" y1="401.5941" x2="63.1536" y2="121.6987">
		<stop  offset="0.3555" style="stop-color:#2232A0"/>
		<stop  offset="1" style="stop-color:#12183A"/>
	</linearGradient>
	<path style="fill:url(#SVGID_00000138569851300984747220000000432687636279643279_);" d="M123.19,141.55l-3.07,287.55
		c-61.77-33.43-106.25-94.57-117-166.56C15.57,202.01,63.02,154.41,123.19,141.55z"/>
	<path class="st10" d="M123.16,141.55L123,154.72c-0.48,0.08-0.91,0.16-1.39,0.28C63.93,168.01,18.34,212.88,4.42,270.21
		c-0.48-2.46-0.87-4.92-1.27-7.42c5.63-27.93,18.77-53.08,37.17-73.43c1.23-1.35,2.5-2.7,3.81-4.05c1.31-1.35,2.62-2.66,3.97-3.93
		c1.31-1.27,2.7-2.54,4.09-3.77c1.39-1.23,2.78-2.46,4.21-3.65c1.43-1.19,2.9-2.34,4.36-3.49c1.47-1.11,2.98-2.22,4.48-3.33
		c1.51-1.07,3.05-2.14,4.6-3.17c9.32-6.15,19.32-11.39,29.91-15.47c1.75-0.67,3.53-1.31,5.32-1.94c3.61-1.23,7.26-2.34,10.95-3.33
		c1.86-0.48,3.73-0.91,5.59-1.35C122.13,141.75,122.64,141.63,123.16,141.55z"/>
	<path class="st10" d="M336.49,357.91l0.15-12.96c0.44-0.08,0.84-0.16,1.28-0.27c53.13-12.8,95.12-56.94,107.95-113.34
		c0.44,2.42,0.8,4.84,1.17,7.3c-5.19,27.48-17.28,52.22-34.24,72.24c-1.13,1.33-2.3,2.65-3.51,3.98c-1.21,1.33-2.41,2.61-3.65,3.86
		c-1.21,1.25-2.48,2.5-3.76,3.71c-1.28,1.21-2.56,2.42-3.87,3.59c-1.32,1.17-2.67,2.3-4.02,3.43c-1.35,1.09-2.74,2.19-4.13,3.28
		c-1.39,1.05-2.81,2.11-4.24,3.12c-8.59,6.05-17.8,11.2-27.55,15.22c-1.61,0.66-3.25,1.29-4.9,1.91c-3.33,1.21-6.69,2.3-10.09,3.28
		c-1.72,0.47-3.44,0.9-5.15,1.33C337.44,357.71,336.97,357.83,336.49,357.91z"/>
	
		<linearGradient id="SVGID_00000077304337757613996610000010046156513649893038_" gradientUnits="userSpaceOnUse" x1="432.0258" y1="214.6082" x2="187.7245" y2="458.9096">
		<stop  offset="0.3555" style="stop-color:#F1A922"/>
		<stop  offset="1" style="stop-color:#E24C00"/>
	</linearGradient>
	<path style="fill:url(#SVGID_00000077304337757613996610000010046156513649893038_);" d="M190.33,498.96V285.32h72.03v77.72h31.5
		c11.82,0,23.33-1.31,34.4-3.81c60.03-13.5,106.97-61.6,118.77-122.26c1.91,11.83,2.89,23.97,2.89,36.34
		c0,125.85-102.01,227.86-227.86,227.86C211.29,501.16,200.7,500.41,190.33,498.96z"/>
	<g>
		<path class="st12" d="M563.44,421.51h-13.65v-25.59l-16.35,25.59h-13.7v-45.28h13.7v25.59l16.35-25.59h13.65V421.51z"/>
		<path class="st12" d="M612.43,421.51h-14.22V403.4h-15.28v18.11h-14.21v-45.28h14.21v17.61h15.28v-17.61h14.22V421.51z"/>
		<path class="st12" d="M686.64,421.51H672.8v-18.49h-13.96v18.49h-13.96v-18.49h-14.02v18.49h-13.84v-14.72
			c0-8.55,4.61-12.82,13.84-12.82l-13.84-17.73h14.34l13.52,17.73v-17.73h13.96v17.73l13.49-17.73h14.31l-13.84,17.73
			c9.23,0,13.84,4.27,13.84,12.82V421.51z"/>
		<path class="st12" d="M734.94,421.51h-13.65v-25.59l-16.35,25.59h-13.7v-45.28h13.7v25.59l16.35-25.59h13.65V421.51z"/>
		<path class="st12" d="M783.93,421.51h-14.22V403.4h-15.28v18.11h-14.21v-45.28h14.21v17.61h15.28v-17.61h14.22V421.51z"/>
		<path class="st12" d="M832.92,421.51h-13.65v-25.59l-16.35,25.59h-13.7v-45.28h13.7v25.59l16.35-25.59h13.65V421.51z"/>
		<path class="st12" d="M881.02,393.84c0,6.63-3.58,9.93-10.71,9.93h-18.15v17.73H838.2v-45.28h30.56c4.53,0,7.71,0.82,9.53,2.49
			c1.82,1.65,2.74,4.72,2.74,9.21V393.84z M867.06,394.15v-6.22h-14.9v6.22H867.06z"/>
		<path class="st12" d="M928.76,421.51h-13.65v-25.59l-16.35,25.59h-13.7v-45.28h13.7v25.59l16.35-25.59h13.65V421.51z"/>
		<path class="st12" d="M977.75,421.51h-14.22V403.4h-15.28v18.11h-14.21v-45.28h14.21v17.61h15.28v-17.61h14.22V421.51z"/>
		<path class="st12" d="M1020.89,387.93h-23.65v33.58h-14.21v-45.28h37.85V387.93z"/>
		<path class="st12" d="M1066.55,409.25c0,4.89-1.15,8.21-3.44,9.98c-2.01,1.52-5.51,2.28-10.52,2.28h-15.72
			c-5.01,0-8.51-0.76-10.52-2.28c-2.29-1.77-3.44-5.1-3.44-9.98v-21.32c0-4.66,1.23-7.84,3.69-9.56c2-1.42,5.42-2.13,10.27-2.13
			h15.72c4.85,0,8.26,0.71,10.27,2.13c2.46,1.72,3.69,4.9,3.69,9.56V409.25z M1052.58,409.25v-21.32h-15.72v21.32H1052.58z"/>
		<path class="st12" d="M1115.41,411.33c0,3.52-0.73,6.1-2.2,7.73c-1.47,1.64-3.94,2.45-7.42,2.45h-34.08v-45.28h34.21
			c3.27,0,5.67,0.68,7.2,2.04c1.53,1.36,2.29,3.66,2.29,6.89v6.42c0,1.51-0.31,2.75-0.94,3.71c-0.5,0.76-1.44,1.64-2.83,2.65
			c1.59,0.58,2.64,1.49,3.14,2.7c0.42,0.92,0.63,2.34,0.63,4.27V411.33z M1101.45,393.97v-5.47h-15.65v5.47H1101.45z
			 M1101.45,409.13v-6.1h-15.65v6.1H1101.45z"/>
		<path class="st12" d="M1164.09,421.51h-13.96V403.4h-15.72v18.11h-13.96v-34.08c0-4.44,1.28-7.51,3.82-9.19
			c2.04-1.34,5.42-2.01,10.14-2.01h29.68V421.51z M1150.13,394.35v-6.92h-15.72v6.92H1150.13z"/>
		<path class="st12" d="M1212.82,421.51h-13.96v-18.49h-14.41v6.23c0,5.03-0.69,8.3-2.07,9.81c-1.46,1.64-4.46,2.45-8.99,2.45h-6.67
			v-10.25h3.78c0-4.15,0.17-6.75,0.5-7.79c0.76-2.23,2.66-3.78,5.72-4.66c-4.15-1-6.22-3.66-6.22-7.99v-5.66
			c0-3.22,0.8-5.53,2.38-6.92c1.47-1.34,3.84-2.01,7.11-2.01h32.82V421.51z M1198.86,394.53v-6.6h-14.41v6.6H1198.86z"/>
		<path class="st12" d="M1283.95,387.93h-23.65v33.58h-14.21v-45.28h37.85V387.93z"/>
		<path class="st12" d="M1330.49,393.84c0,6.63-3.58,9.93-10.71,9.93h-18.15v17.73h-13.96v-45.28h30.56c4.53,0,7.71,0.82,9.53,2.49
			c1.82,1.65,2.74,4.72,2.74,9.21V393.84z M1316.52,394.15v-6.22h-14.9v6.22H1316.52z"/>
		<path class="st12" d="M1377.71,409.25c0,4.69-0.86,7.91-2.6,9.65c-1.75,1.74-4.96,2.61-9.66,2.61h-29.99v-12.26h28.3v-5.85h-19.04
			c-3.82,0-6.49-0.63-8-1.89c-1.76-1.38-2.65-3.94-2.65-7.67v-17.61h13.83v17.61h15.85v-17.61h13.96V409.25z"/>
		<path class="st12" d="M1426.52,421.51h-14.22v-33.58h-15.28v33.58h-14.21v-45.28h43.71V421.51z"/>
		<path class="st12" d="M1475.51,421.51h-14.22v-33.58h-15.28v33.58h-14.21v-45.28h43.71V421.51z"/>
		<path class="st12" d="M1524.37,421.51h-13.96V403.4h-15.72v18.11h-13.96v-34.08c0-4.44,1.28-7.51,3.82-9.19
			c2.04-1.34,5.42-2.01,10.14-2.01h29.68V421.51z M1510.4,394.35v-6.92h-15.72v6.92H1510.4z"/>
		<path class="st12" d="M1601.22,421.51h-13.96v-18.49h-15.79v18.49h-13.96v-45.28h13.96v17.73h1.65l14.14-17.73h13.96l-14.02,17.73
			c9.35,0,14.02,4.27,14.02,12.82V421.51z"/>
		<path class="st12" d="M1648.64,409.25c0,4.89-1.15,8.21-3.44,9.98c-2.01,1.52-5.51,2.28-10.52,2.28h-15.72
			c-5.01,0-8.51-0.76-10.52-2.28c-2.29-1.77-3.44-5.1-3.44-9.98v-21.32c0-4.66,1.23-7.84,3.69-9.56c2-1.42,5.42-2.13,10.27-2.13
			h15.72c4.85,0,8.26,0.71,10.27,2.13c2.46,1.72,3.69,4.9,3.69,9.56V409.25z M1634.67,409.25v-21.32h-15.72v21.32H1634.67z"/>
		<path class="st12" d="M1711.4,421.51h-13.96l-2.65-20.25c-0.17-1.29-0.25-2.79-0.25-4.46h-0.13l-5.91,24.71h-11.82l-5.91-24.71
			h-0.13c0,1.34-0.1,2.83-0.31,4.46l-2.58,20.25h-13.96l6.42-45.28H1677l4.58,18.11c0.63,2.47,0.95,4.61,0.95,6.42h0.13
			c0-1.81,0.31-3.95,0.94-6.42l4.59-18.11h16.79L1711.4,421.51z"/>
		<path class="st12" d="M1760.52,421.51h-14.22v-33.58h-15.28v33.58h-14.21v-45.28h43.71V421.51z"/>
		<path class="st12" d="M1809.38,421.51h-13.96V403.4h-15.72v18.11h-13.96v-34.08c0-4.44,1.28-7.51,3.82-9.19
			c2.04-1.34,5.42-2.01,10.14-2.01h29.68V421.51z M1795.42,394.35v-6.92h-15.72v6.92H1795.42z"/>
		<path class="st12" d="M1858.31,421.51h-14.22V403.4h-15.28v18.11h-14.21v-45.28h14.21v17.61h15.28v-17.61h14.22V421.51z"/>
		<path class="st12" d="M1907.29,421.51h-13.65v-25.59l-16.35,25.59h-13.7v-45.28h13.7v25.59l16.35-25.59h13.65V421.51z"/>
		<path class="st12" d="M1956.28,421.51h-13.65v-25.59l-16.35,25.59h-13.7v-45.28h13.7v25.59l16.35-25.59h13.65V421.51z
			 M1945.09,365.23c0,2.86-0.46,4.9-1.39,6.16c-1.09,1.55-3,2.33-5.73,2.33h-7.1c-2.69,0-4.57-0.77-5.66-2.33
			c-0.97-1.34-1.44-3.39-1.44-6.16h7.1v3.71h7.1v-3.71H1945.09z"/>
	</g>
</g>
</svg>
